# xmcd CD database file
#
# Track frame offsets:
#	150
#	21209
#	42070
#	64427
#	82162
#	97975
#	110925
#	130276
#	148265
#	170097
#
# Disc length: 2475 seconds
#
# Revision: 0
# Processed by: cddbd v1.5.2PL0 Copyright (c) Steve Scherf et al.
# Submitted via: CDex 1.51
#
DISCID=9709a90a
DTITLE=Liese's Living Room - Hope So...
DYEAR=2009
DGENRE=Jazz
TTITLE0=One Side to the Other
TTITLE1=Baby, Whatcha Thinking''Bout
TTITLE2=Stop
TTITLE3=This Life O'm Livin
TTITLE4=King Endymion
TTITLE5=Kick 'Em to the Curb
TTITLE6=Pearly Gate
TTITLE7=Jazz Fest
TTITLE8=Touch'n'Go
TTITLE9=Sinkin' to the Bottom
EXTD=YEAR: 2009
EXTT0=
EXTT1=
EXTT2=
EXTT3=
EXTT4=
EXTT5=
EXTT6=
EXTT7=
EXTT8=
EXTT9=
PLAYORDER=
